<svg width="110" height="24" viewBox="0 0 110 24" fill="none" xmlns="http://www.w3.org/2000/svg">
<g clip-path="url(#clip0_719_1088)">
<path d="M0 0.0795898H1.60205L18.937 23.9832H15.9571L2.40312 5.23836V23.9832H0V0.0795898Z" fill="#060612"/>
<path d="M27.5798 0.0634766C29.248 0.0634766 30.8096 0.373465 32.2641 0.992677C33.7185 1.61252 34.9857 2.46161 36.0661 3.5401C37.1465 4.61908 37.9966 5.88476 38.6169 7.33716C39.2372 8.79005 39.5477 10.3491 39.5477 12.0153C39.5477 13.6816 39.2337 15.2412 38.606 16.6936C37.9781 18.1465 37.1234 19.4121 36.0425 20.4905C34.9611 21.5695 33.6945 22.4242 32.2421 23.054C30.789 23.6843 29.23 23.9992 27.5638 23.9992V21.596C28.8666 21.596 30.1002 21.3457 31.2647 20.8445C32.4288 20.3434 33.4487 19.661 34.3248 18.7973C35.2005 17.9337 35.8894 16.9209 36.3916 15.7583C36.8932 14.5958 37.1445 13.3536 37.1445 12.0313C37.1445 10.6881 36.8932 9.43537 36.3916 8.27279C35.8894 7.11031 35.2005 6.09746 34.3248 5.23378C33.4487 4.37022 32.4288 3.69325 31.2647 3.20264C30.1002 2.71201 28.8666 2.46671 27.5638 2.46671C26.218 2.46671 24.9575 2.7125 23.7828 3.20362C22.6078 3.69534 21.5825 4.37315 20.7067 5.23829C19.8307 6.10343 19.1418 7.11835 18.6401 8.2824C18.1379 9.44693 17.887 10.7016 17.887 12.0474H15.5801C15.5801 10.3812 15.8954 8.82213 16.5263 7.36913C17.157 5.91673 18.0127 4.65008 19.0931 3.56868C20.1735 2.48778 21.4407 1.63309 22.8952 1.00522C24.3496 0.377452 25.9112 0.0634766 27.5798 0.0634766Z" fill="#060612"/>
<path d="M41.8223 0.0322266H43.4243L60.7593 23.9358H57.7794L44.2254 5.191V23.9358H41.8223V0.0322266Z" fill="#060612"/>
<path d="M63.0664 0.0634766H64.8288L75.0503 12.5921L85.1116 0.0634766H88.1237L75.9155 15.2837H74.4095L65.4697 4.67766V23.9992H63.0664V0.0634766Z" fill="#060612"/>
<path d="M109.496 0H90.3027V2.40312H109.496V0Z" fill="#060612"/>
<path d="M109.528 12.7849H92.7058V21.5966H109.528V23.9998H90.3027V10.3818H109.528V12.7849Z" fill="#060612"/>
</g>
<defs>
<clipPath id="clip0_719_1088">
<rect width="110" height="24" fill="white"/>
</clipPath>
</defs>
</svg>
