<svg width="91" height="32" viewBox="0 0 91 32" fill="none" xmlns="http://www.w3.org/2000/svg">
<g clip-path="url(#clip0_719_1047)">
<path d="M20.6999 10.7295C21.1836 12.4474 21.3647 14.2298 21.3647 16.0106C20.1063 16.6134 18.9574 17.4584 17.9632 18.4952C17.1152 19.3795 16.409 20.3715 15.863 21.4395C15.863 19.6193 15.863 17.7991 15.863 15.9789C15.863 12.727 14.7393 10.5689 11.1867 10.5689C7.91603 10.5689 5.50165 12.627 5.50165 15.9789C5.50165 19.8912 5.50165 23.8034 5.50165 27.7157C5.50165 31.4333 0 31.4333 0 27.7157C0 21.4041 0 15.0925 0 8.78086C0 5.06327 5.50165 5.06327 5.50165 8.78086C5.5172 9.10649 5.54014 9.25302 5.551 9.43073C7.02628 7.85363 8.10735 6.77336 10.2239 6.00706C14.4961 4.46043 19.4091 6.14506 20.6999 10.7295ZM90.7641 8.26884L86.5261 10.7156L82.288 13.1625V10.7332C82.1901 10.7429 82.0892 10.7489 81.9846 10.7501C77.8199 10.8001 71.3664 10.8405 67.2016 10.8907C64.1578 11.0606 62.5277 11.8337 61.3759 13.1658L56.9297 18.5838L54.0413 14.595C55.6152 12.5094 56.5165 11.315 58.0903 9.22935C59.6608 7.38155 62.8837 5.6873 65.6042 5.77949L81.9845 5.70691C82.0888 5.70648 82.1899 5.71111 82.2879 5.72044V3.37517L86.526 5.82204L90.7641 8.26884ZM72.9793 2.79259V5.09438H67.4777V2.79259C67.4776 -0.85395 72.9793 -1.00699 72.9793 2.79259ZM72.9793 5.7648V25.398C72.9793 25.8257 73.0635 26.1774 73.2315 26.4525C73.7519 27.3043 75.0259 27.4043 75.8677 27.0256C76.6692 26.6649 77.49 26.7355 78.0913 27.4153C78.4427 27.8126 78.6185 28.3628 78.6185 29.0658C78.6185 31.0823 75.8818 32 74.2172 32C71.7059 32 69.4503 31.5561 68.1654 29.1575C67.707 28.3018 67.4777 27.125 67.4777 25.6273V5.7648H72.9793ZM46.5683 5.8842C47.4547 5.8842 48.2035 6.26626 48.8148 7.03039L64.1277 26.0569C64.525 26.5459 64.7236 27.0961 64.7236 27.7074C64.7236 28.4715 64.4333 29.1286 63.8526 29.6787C63.2719 30.2289 62.63 30.504 61.927 30.504C61.0406 30.504 60.2918 30.1067 59.6805 29.312L44.3676 10.2855C43.9703 9.79652 43.7716 9.24636 43.7716 8.63506C43.7716 7.84039 44.0543 7.18329 44.6198 6.66366C45.1853 6.14397 45.8347 5.8842 46.5683 5.8842ZM47.3739 22.892L51.6115 17.7127L54.3624 22.2974C53.1922 23.7771 52.022 25.2567 50.8518 26.7363C48.2946 29.3811 46.6274 30.968 42.36 31.6565C32.6487 33.224 22.7439 29.3552 22.9836 21.5003C22.1075 22.1736 21.4673 23.0852 21.3647 24.1988C21.3647 25.3711 21.3647 26.5435 21.3647 27.7158C21.3647 31.4334 15.863 31.4334 15.863 27.7158C15.8716 26.5565 15.8801 25.3972 15.8886 24.2378C16.1587 21.3453 18.6218 18.5315 21.5469 16.8368C23.3523 15.7907 26.1293 15.3177 28.1662 15.3345C32.0638 15.3345 35.9615 15.3345 39.8591 15.3345C39.8589 12.4054 36.9391 10.4134 34.2156 10.4134C31.3397 10.4134 29.27 11.478 28.3013 14.296C28.2798 14.3586 28.259 14.4222 28.2389 14.487C26.4336 14.6067 24.6168 14.8251 22.84 15.4113C23.1007 13.9591 23.5749 12.5771 24.2606 11.3841C26.3431 7.76108 29.9974 5.44721 34.2156 5.44721C37.2893 5.44721 40.0949 6.78899 42.2067 8.99129C44.3887 11.2668 45.6379 14.2521 45.6379 17.4112C45.5761 18.894 44.3071 19.8491 42.8839 19.8491C37.9159 19.8491 32.9479 19.849 27.9799 19.8488C27.5166 24.8201 33.7177 27.2903 39.9118 26.7048C43.1553 26.3982 44.9636 25.4556 47.3739 22.892Z" fill="#060612"/>
</g>
<defs>
<clipPath id="clip0_719_1047">
<rect width="91" height="32" fill="white"/>
</clipPath>
</defs>
</svg>
