<svg width="115" height="24" viewBox="0 0 115 24" fill="none" xmlns="http://www.w3.org/2000/svg">
<g clip-path="url(#clip0_719_1041)">
<path d="M8.70115 23.458C6.35955 23.3806 4.59005 22.8515 3.39264 21.8709C2.19524 20.8644 1.33045 19.7419 0.798269 18.5031C0.26609 17.2386 0 15.9612 0 14.6709C0 13.329 0.252786 12.0386 0.758357 10.7999C1.29054 9.53542 2.15533 8.41283 3.35275 7.43219C4.57675 6.42574 6.12008 5.90961 7.98269 5.88379H20.9147C22.7773 5.90961 24.3073 6.42574 25.5047 7.43219C26.7288 8.41283 27.5936 9.53542 28.0992 10.7999C28.6312 12.0386 28.8973 13.329 28.8973 14.6709C28.8973 15.9612 28.6312 17.2386 28.0992 18.5031C27.5669 19.7419 26.7021 20.8644 25.5047 21.8709C24.3073 22.8515 22.5378 23.3806 20.1962 23.458H8.70115ZM7.82304 11.0709C7.31747 11.0709 6.87843 11.2773 6.50589 11.6902C6.13339 12.0773 5.85397 12.5419 5.66773 13.0838C5.50805 13.5999 5.42824 14.1161 5.42824 14.6322C5.42824 15.1741 5.50805 15.7161 5.66773 16.258C5.85397 16.7741 6.13339 17.2386 6.50589 17.6515C6.87843 18.0386 7.31747 18.2451 7.82304 18.2709H21.0743C21.5799 18.2451 22.019 18.0386 22.3915 17.6515C22.764 17.2386 23.0301 16.7741 23.1898 16.258C23.376 15.7161 23.4691 15.1741 23.4691 14.6322C23.4691 14.1161 23.376 13.5999 23.1898 13.0838C23.0301 12.5419 22.764 12.0773 22.3915 11.6902C22.019 11.2773 21.5799 11.0709 21.0743 11.0709H7.82304Z" fill="#060612"/>
<path d="M58.8317 8.12881C58.8317 8.77395 58.5656 9.3159 58.0333 9.7546C57.528 10.1675 56.9027 10.374 56.1576 10.374H39.2741C38.9283 10.374 38.6488 10.4385 38.436 10.5675C38.2229 10.6966 38.0635 10.8385 37.9571 10.9933C37.8504 11.1224 37.7973 11.2385 37.7973 11.3417C37.7973 11.4707 37.8504 11.6127 37.9571 11.7675C38.0635 11.8966 38.2229 12.0256 38.436 12.1546C38.6488 12.2578 38.9283 12.3224 39.2741 12.3482H52.3259C54.0021 12.374 55.3859 12.6966 56.4768 13.3159C57.5677 13.9095 58.3395 14.6191 58.7917 15.445C59.2707 16.245 59.5101 17.0578 59.5101 17.8836C59.5101 18.6836 59.2707 19.4966 58.7917 20.3224C58.3128 21.1224 57.528 21.832 56.4368 22.4514C55.3725 23.0449 54.0021 23.3417 52.3259 23.3417C52.0331 23.3675 51.8203 23.3804 51.6872 23.3804H36.2008C35.4557 23.3804 34.8171 23.174 34.2848 22.7611C33.7795 22.3224 33.5267 21.7933 33.5267 21.174C33.5267 20.5288 33.7925 19.9869 34.3248 19.5481C34.8304 19.1353 35.4557 18.9288 36.2008 18.9288H52.6451C53.0443 18.9546 53.3635 18.903 53.6029 18.774C53.8691 18.6449 54.0688 18.503 54.2019 18.3481C54.3349 18.1933 54.4013 18.0385 54.4013 17.8836C54.4013 17.8062 54.3349 17.6772 54.2019 17.4966C54.0688 17.2901 53.8691 17.1353 53.6029 17.032C53.3635 16.903 53.0443 16.8256 52.6451 16.7998H39.5536C38.0101 16.774 36.7331 16.4643 35.7219 15.8707C34.7107 15.2514 33.9923 14.5417 33.5664 13.7417C33.1408 12.9417 32.9277 12.1417 32.9277 11.3417C32.9277 10.5417 33.1408 9.75459 33.5664 8.98041C34.0189 8.18041 34.7373 7.49654 35.7219 6.92881C36.7331 6.33526 38.0101 6.01268 39.5536 5.96105C39.8195 5.93526 40.0192 5.92236 40.1523 5.92236H56.1576C56.9027 5.92236 57.528 6.14172 58.0333 6.58041C58.5656 6.99332 58.8317 7.50945 58.8317 8.12881Z" fill="#060612"/>
<path d="M66.6956 0C67.414 0.0258065 68.026 0.283872 68.5316 0.774195C69.0372 1.23871 69.3033 1.81935 69.33 2.51613V21.4839C69.1702 23.0323 68.2921 23.871 66.6956 24C65.9505 24 65.2985 23.7677 64.7398 23.3032C64.2076 22.8129 63.9414 22.2065 63.9414 21.4839V2.51613C63.9681 1.79355 64.2476 1.2 64.7798 0.735483C65.3118 0.245161 65.9505 0 66.6956 0Z" fill="#060612"/>
<path d="M82.66 23.458C80.3184 23.3806 78.5491 22.8515 77.3518 21.8709C76.1542 20.8644 75.2894 19.7419 74.7574 18.5031C74.2251 17.2386 73.959 15.9612 73.959 14.6709C73.959 13.329 74.2118 12.0386 74.7174 10.7999C75.2496 9.53542 76.1144 8.41283 77.3118 7.43219C78.5358 6.42574 80.079 5.90961 81.9416 5.88379H94.8736C96.7363 5.90961 98.2664 6.42574 99.4638 7.43219C100.687 8.41283 101.552 9.53542 102.058 10.7999C102.59 12.0386 102.856 13.329 102.856 14.6709C102.856 15.9612 102.59 17.2386 102.058 18.5031C101.526 19.7419 100.661 20.8644 99.4638 21.8709C98.2664 22.8515 96.4968 23.3806 94.1552 23.458H82.66ZM81.7822 11.0709C81.2766 11.0709 80.8374 11.2773 80.4648 11.6902C80.0923 12.0773 79.8131 12.5419 79.6267 13.0838C79.467 13.5999 79.3872 14.1161 79.3872 14.6322C79.3872 15.1741 79.467 15.7161 79.6267 16.258C79.8131 16.7741 80.0923 17.2386 80.4648 17.6515C80.8374 18.0386 81.2766 18.2451 81.7822 18.2709H95.0334C95.539 18.2451 95.9779 18.0386 96.3504 17.6515C96.723 17.2386 96.9891 16.7741 97.1488 16.258C97.335 15.7161 97.428 15.1741 97.428 14.6322C97.428 14.1161 97.335 13.5999 97.1488 13.0838C96.9891 12.5419 96.723 12.0773 96.3504 11.6902C95.9779 11.2773 95.539 11.0709 95.0334 11.0709H81.7822Z" fill="#060612"/>
<path d="M111.428 23.9999C113.006 23.9999 114.285 22.7208 114.285 21.1428C114.285 19.5648 113.006 18.2856 111.428 18.2856C109.85 18.2856 108.57 19.5648 108.57 21.1428C108.57 22.7208 109.85 23.9999 111.428 23.9999Z" fill="#060612"/>
</g>
<defs>
<clipPath id="clip0_719_1041">
<rect width="115" height="24" fill="white"/>
</clipPath>
</defs>
</svg>
