<svg width="130" height="28" viewBox="0 0 130 28" fill="none" xmlns="http://www.w3.org/2000/svg">
<g clip-path="url(#clip0_719_1032)">
<path d="M10.112 28.0001V19.359H17.2821V18.8075L0 1.52539V28.0001H10.112Z" fill="#060612"/>
<path d="M18.6996 0V8.64105H11.5293V9.19264L28.8114 26.4747V0H18.6996Z" fill="#060612"/>
<path d="M57.1978 2.14844V22.4119H54.556L43.9308 6.2998V22.4119H41.2891V2.14844H43.9308L54.556 18.2315V2.14844H57.1978Z" fill="#060612"/>
<path d="M68.5763 22.6742C64.0475 22.6742 60.709 19.4808 60.709 14.4295C60.709 9.40714 63.9314 6.24268 68.5763 6.24268C73.1921 6.24268 76.2114 9.49413 76.2114 13.8488C76.2114 14.4295 76.1824 14.8939 76.1243 15.4455H63.4087C63.612 18.6679 65.8764 20.4388 68.5762 20.4388C70.9567 20.4388 72.4663 19.2196 73.0469 17.5067H75.8919C75.0792 20.4098 72.5244 22.6742 68.5763 22.6742ZM63.4379 13.2972H73.4825C73.5115 10.1909 71.189 8.47806 68.4601 8.47806C65.8764 8.47806 63.728 10.1909 63.4379 13.2972Z" fill="#060612"/>
<path d="M84.2245 16.4896L80.5957 22.4118H77.8379L82.9763 14.5155L77.8379 6.50293H80.828L84.602 12.3963L88.2019 6.50293H90.9597L85.8503 14.3702L90.9887 22.4117H87.9985L84.2245 16.4896Z" fill="#060612"/>
<path d="M94.1824 8.68057H92.1211V6.50325H94.1824V2.49707H96.8241V6.50325H100.976V8.68069H96.8241V18.0576C96.8241 19.6252 97.4048 20.1767 99.0304 20.1767H100.976V22.4121H98.5948C95.7789 22.4121 94.1823 21.2508 94.1823 18.0576L94.1824 8.68057Z" fill="#060612"/>
<path d="M111.049 22.6742C106.52 22.6742 103.182 19.4808 103.182 14.4295C103.182 9.40714 106.404 6.24268 111.049 6.24268C115.665 6.24268 118.684 9.49413 118.684 13.8488C118.684 14.4295 118.655 14.8939 118.597 15.4455H105.881C106.085 18.6679 108.349 20.4388 111.049 20.4388C113.429 20.4388 114.939 19.2196 115.52 17.5067H118.365C117.552 20.4098 114.997 22.6742 111.049 22.6742ZM105.911 13.2972H115.955C115.984 10.1909 113.662 8.47806 110.933 8.47806C108.349 8.47806 106.201 10.1909 105.911 13.2972Z" fill="#060612"/>
<path d="M124.81 22.4124H122.168V6.50362H124.81V9.08746C125.71 7.31654 127.423 6.21338 129.948 6.21338V8.94227H129.252C126.726 8.94227 124.81 10.0743 124.81 13.7612V22.4124Z" fill="#060612"/>
</g>
<defs>
<clipPath id="clip0_719_1032">
<rect width="130" height="28" fill="white"/>
</clipPath>
</defs>
</svg>
