<svg width="24" height="16" viewBox="0 0 24 16" fill="none" xmlns="http://www.w3.org/2000/svg">
<path d="M8.24389 0.651636L14.9889 7.36666C15.3486 7.72639 15.3486 8.29597 14.9889 8.62572L8.24389 15.3407C7.88415 15.7005 7.31458 15.7005 6.98482 15.3407L0.2698 8.62572C-0.0899333 8.26599 -0.0899333 7.69641 0.2698 7.36666L6.98482 0.651636C7.34455 0.291903 7.91413 0.291903 8.24389 0.651636Z" fill="#FF6321"/>
<path d="M17.8072 8.62547C16.5781 9.85456 13.8501 12.5825 12.4411 13.9915C11.9915 14.4412 12.1414 15.2206 12.7409 15.4604C13.6403 15.7902 14.5995 16 15.6188 16C20.3253 16 24.0725 11.953 23.5629 7.15656C23.1732 3.46929 20.2354 0.501492 16.5781 0.0518251C15.2291 -0.0980638 13.94 0.0818029 12.7709 0.53147C12.1713 0.771292 11.9915 1.55071 12.4411 2.00038L17.8072 7.3664C18.1669 7.72614 18.1669 8.26573 17.8072 8.62547Z" fill="#060612"/>
</svg>
