<svg width="32" height="28" viewBox="0 0 32 28" fill="none" xmlns="http://www.w3.org/2000/svg">
<g filter="url(#filter0_ii_628_79)">
<path fill-rule="evenodd" clip-rule="evenodd" d="M19.999 24.0002C21.0496 24.0002 22.0899 23.7932 23.0605 23.3912C24.0311 22.9891 24.913 22.3999 25.6559 21.657C26.3988 20.9142 26.988 20.0322 27.3901 19.0616C27.7921 18.091 27.999 17.0507 27.999 16.0002C27.999 12.8176 26.7347 9.76528 24.4843 7.51488C22.2339 5.26444 19.1816 4.00016 15.999 4.00016C12.8165 4.00016 9.76414 5.26444 7.51374 7.51488C5.2633 9.76528 3.99902 12.8176 3.99902 16.0002C3.99902 17.0507 4.20595 18.091 4.60798 19.0616C5.01002 20.0322 5.5993 20.9142 6.34217 21.657C7.08504 22.3999 7.96695 22.9891 8.93758 23.3912C9.90814 23.7932 10.9485 24.0002 11.999 24.0002H19.999ZM15.999 7.20016C13.6651 7.20016 11.4268 8.12728 9.77646 9.7776C8.12614 11.4279 7.19902 13.6662 7.19902 16.0002C7.19902 16.6305 7.32318 17.2546 7.5644 17.837C7.80562 18.4194 8.15918 18.9486 8.60494 19.3942C9.05062 19.84 9.57974 20.1935 10.1621 20.4348C10.7445 20.676 11.3687 20.8002 11.999 20.8002H19.999C20.6293 20.8002 21.2535 20.676 21.8359 20.4348C22.4183 20.1935 22.9474 19.84 23.3931 19.3942C23.8389 18.9486 24.1924 18.4194 24.4337 17.837C24.6749 17.2546 24.799 16.6305 24.799 16.0002C24.799 13.6662 23.8719 11.4279 22.2216 9.7776C20.5713 8.12728 18.3329 7.20016 15.999 7.20016Z" fill="#EEECEA"/>
<path fill-rule="evenodd" clip-rule="evenodd" d="M10.4 28C9.03424 28 7.6819 27.6896 6.4201 27.0866C5.15834 26.4835 4.01184 25.5996 3.04609 24.4853C2.08038 23.371 1.31431 22.0482 0.791653 20.5922C0.269006 19.1363 0 17.5758 0 16C0 11.7566 1.68571 7.68687 4.6863 4.68629C7.68687 1.68571 11.7566 0 16 0C20.2434 0 24.3131 1.68571 27.3137 4.68629C30.3143 7.68687 32 11.7566 32 16C32 17.5758 31.731 19.1363 31.2083 20.5922C30.6857 22.0482 29.9196 23.371 28.9539 24.4853C27.9882 25.5996 26.8417 26.4835 25.5799 27.0866C24.3181 27.6896 22.9658 28 21.6 28H10.4ZM6.94903 6.94903C9.34952 4.54857 12.6052 3.2 16 3.2C19.3948 3.2 22.6505 4.54857 25.051 6.94903C27.4514 9.34952 28.8 12.6052 28.8 16C28.8 17.2143 28.5923 18.4086 28.1966 19.511C27.8008 20.6134 27.2301 21.5883 26.5357 22.3895C25.8421 23.1898 25.0436 23.7962 24.2 24.1994C23.3585 24.6016 22.4766 24.8 21.6 24.8H10.4C9.52344 24.8 8.64152 24.6016 7.79999 24.1994C6.95639 23.7962 6.15792 23.1898 5.4643 22.3895C4.76994 21.5883 4.19922 20.6134 3.80346 19.511C3.40769 18.4086 3.2 17.2143 3.2 16C3.2 12.6052 4.54857 9.34952 6.94903 6.94903Z" fill="#EEECEA"/>
<path d="M19.9992 20.0003H15.9957C15.7269 20.0001 15.4601 19.9727 15.1992 19.9195C14.6936 19.8163 14.2101 19.6157 13.7769 19.3262C13.1191 18.8866 12.6064 18.262 12.3037 17.531C12.2055 17.294 12.1308 17.0493 12.08 16.8003C11.9741 16.2815 11.9717 15.7442 12.0761 15.2199C12.2304 14.444 12.6113 13.7313 13.1708 13.1719C13.7301 12.6125 14.4429 12.2315 15.2188 12.0772C15.2431 12.0723 15.2673 12.0678 15.2917 12.0634C15.5261 12.0213 15.7629 12.0003 15.9992 12.0003C16.522 12.0003 17.0422 12.1028 17.5299 12.3048C18.2608 12.6075 18.8855 13.1202 19.325 13.778C19.7646 14.4358 19.9992 15.2092 19.9992 16.0003H16.7992C16.7992 15.8421 16.7523 15.6874 16.6644 15.5558C16.5765 15.4243 16.4515 15.3218 16.3053 15.2612C16.1592 15.2006 15.9983 15.1848 15.8431 15.2157C15.6879 15.2466 15.5453 15.3227 15.4335 15.4346C15.3216 15.5465 15.2454 15.689 15.2145 15.8442C15.1837 15.9994 15.1995 16.1603 15.2601 16.3065C15.3206 16.4526 15.4232 16.5776 15.5547 16.6655C15.6863 16.7534 15.8409 16.8003 15.9992 16.8003H19.9992C20.1042 16.8003 20.2083 16.7796 20.3053 16.7394C20.4024 16.6992 20.4905 16.6403 20.5649 16.566C20.6392 16.4917 20.6981 16.4035 20.7383 16.3065C20.7785 16.2094 20.7992 16.1054 20.7992 16.0003C20.7992 14.7273 20.2935 13.5064 19.3933 12.6062C18.4931 11.706 17.2722 11.2003 15.9992 11.2003C15.8611 11.2003 15.7237 11.2062 15.5872 11.218C15.2517 11.2469 14.922 11.3109 14.6032 11.4078C14.2895 11.5031 13.9864 11.6304 13.6986 11.7875C13.369 11.9675 13.0596 12.1867 12.7776 12.4421C12.7189 12.4952 12.6613 12.5499 12.6051 12.6062C12.2113 13 11.8929 13.4553 11.6594 13.9494C11.5427 14.1964 11.4471 14.4531 11.374 14.7168C11.2903 15.0182 11.2359 15.3286 11.2125 15.6438C11.2037 15.7621 11.1992 15.881 11.1992 16.0003C11.1992 16.6276 11.3221 17.252 11.5645 17.8372C11.9279 18.7143 12.5431 19.4639 13.3325 19.9914C13.3369 19.9944 13.3414 19.9974 13.3459 20.0003H11.9992C11.4739 20.0003 10.9537 19.8969 10.4685 19.6958C9.98319 19.4948 9.54223 19.2002 9.17079 18.8287C8.79935 18.4573 8.50471 18.0163 8.30367 17.531C8.10263 17.0458 7.99919 16.5256 7.99919 16.0003C7.99919 13.8786 8.84207 11.8438 10.3423 10.3434C11.8426 8.8432 13.8774 8.00033 15.9992 8.00033C18.1209 8.00033 20.1557 8.8432 21.6561 10.3434C23.1563 11.8438 23.9992 13.8786 23.9992 16.0003C23.9992 16.5256 23.8957 17.0458 23.6947 17.531C23.4937 18.0163 23.199 18.4573 22.8276 18.8287C22.4561 19.2002 22.0152 19.4948 21.5299 19.6958C21.0446 19.8969 20.5245 20.0003 19.9992 20.0003Z" fill="#EEECEA"/>
</g>
<defs>
<filter id="filter0_ii_628_79" x="0" y="0" width="32" height="29.3636" filterUnits="userSpaceOnUse" color-interpolation-filters="sRGB">
<feFlood flood-opacity="0" result="BackgroundImageFix"/>
<feBlend mode="normal" in="SourceGraphic" in2="BackgroundImageFix" result="shape"/>
<feColorMatrix in="SourceAlpha" type="matrix" values="0 0 0 0 0 0 0 0 0 0 0 0 0 0 0 0 0 0 127 0" result="hardAlpha"/>
<feOffset dy="1.36364"/>
<feGaussianBlur stdDeviation="2.04545"/>
<feComposite in2="hardAlpha" operator="arithmetic" k2="-1" k3="1"/>
<feColorMatrix type="matrix" values="0 0 0 0 0 0 0 0 0 0 0 0 0 0 0 0 0 0 0.18 0"/>
<feBlend mode="normal" in2="shape" result="effect1_innerShadow_628_79"/>
<feColorMatrix in="SourceAlpha" type="matrix" values="0 0 0 0 0 0 0 0 0 0 0 0 0 0 0 0 0 0 127 0" result="hardAlpha"/>
<feOffset dy="0.681818"/>
<feComposite in2="hardAlpha" operator="arithmetic" k2="-1" k3="1"/>
<feColorMatrix type="matrix" values="0 0 0 0 1 0 0 0 0 1 0 0 0 0 1 0 0 0 1 0"/>
<feBlend mode="normal" in2="effect1_innerShadow_628_79" result="effect2_innerShadow_628_79"/>
</filter>
</defs>
</svg>
