<svg width="31" height="28" viewBox="0 0 31 28" fill="none" xmlns="http://www.w3.org/2000/svg">
<g filter="url(#filter0_ii_628_96)">
<path d="M4.24177 21.1664C5.37663 21.958 7.21661 21.958 8.3515 21.1664C9.48631 20.3748 9.48631 19.0914 8.3515 18.2998C7.21661 17.5082 5.37663 17.5082 4.24177 18.2998C3.10691 19.0914 3.10691 20.3748 4.24177 21.1664Z" fill="#EEECEA"/>
<path d="M16.015 10.4162C17.7173 11.6036 20.4772 11.6036 22.1795 10.4162C23.8818 9.2288 23.8818 7.30371 22.1795 6.11634C20.4772 4.92897 17.7173 4.92897 16.015 6.11634C14.3127 7.30371 14.3127 9.2288 16.015 10.4162Z" fill="#EEECEA"/>
<path d="M9.7666 15.7918C11.1852 16.7813 13.4851 16.7813 14.9037 15.7918C16.3223 14.8023 16.3223 13.1981 14.9037 12.2086C13.4851 11.2191 11.1852 11.2191 9.7666 12.2086C8.34803 13.1981 8.34803 14.8023 9.7666 15.7918Z" fill="#EEECEA"/>
<path d="M0.638359 15.0745C1.4895 15.6682 2.86948 15.6682 3.72063 15.0745C4.57177 14.4808 4.57177 13.5183 3.72063 12.9245C2.86948 12.3308 1.4895 12.3308 0.638359 12.9245C-0.212787 13.5183 -0.212786 14.4808 0.638359 15.0745Z" fill="#EEECEA"/>
<path d="M9.7666 4.32532C11.1852 5.3148 13.4851 5.3148 14.9037 4.32532C16.3223 3.33585 16.3223 1.73159 14.9037 0.74211C13.4851 -0.24737 11.1852 -0.24737 9.7666 0.74211C8.34803 1.73159 8.34803 3.33585 9.7666 4.32532Z" fill="#EEECEA"/>
<path d="M4.24177 9.69989C5.37663 10.4915 7.21661 10.4915 8.3515 9.69989C9.48631 8.9083 9.48631 7.62487 8.3515 6.83332C7.21661 6.04174 5.37663 6.04174 4.24177 6.83332C3.10691 7.62487 3.10691 8.9083 4.24177 9.69989Z" fill="#EEECEA"/>
<path d="M9.7666 27.2573C11.1852 28.2467 13.4851 28.2467 14.9037 27.2573C16.3223 26.2678 16.3223 24.6635 14.9037 23.674C13.4851 22.6846 11.1852 22.6846 9.7666 23.674C8.34803 24.6635 8.34803 26.2678 9.7666 27.2573Z" fill="#EEECEA"/>
<path d="M23.5072 16.151C25.2095 17.3384 27.9695 17.3384 29.6717 16.151C31.3741 14.9637 31.3741 13.0386 29.6717 11.8512C27.9695 10.6638 25.2095 10.6638 23.5072 11.8512C21.8049 13.0386 21.8049 14.9637 23.5072 16.151Z" fill="#EEECEA"/>
<path d="M16.015 21.8827C17.7173 23.0701 20.4772 23.0701 22.1795 21.8827C23.8818 20.6953 23.8818 18.7702 22.1795 17.5828C20.4772 16.3955 17.7173 16.3955 16.015 17.5828C14.3127 18.7702 14.3127 20.6953 16.015 21.8827Z" fill="#EEECEA"/>
</g>
<defs>
<filter id="filter0_ii_628_96" x="0" y="0" width="30.9482" height="29.3627" filterUnits="userSpaceOnUse" color-interpolation-filters="sRGB">
<feFlood flood-opacity="0" result="BackgroundImageFix"/>
<feBlend mode="normal" in="SourceGraphic" in2="BackgroundImageFix" result="shape"/>
<feColorMatrix in="SourceAlpha" type="matrix" values="0 0 0 0 0 0 0 0 0 0 0 0 0 0 0 0 0 0 127 0" result="hardAlpha"/>
<feOffset dy="1.36364"/>
<feGaussianBlur stdDeviation="2.04545"/>
<feComposite in2="hardAlpha" operator="arithmetic" k2="-1" k3="1"/>
<feColorMatrix type="matrix" values="0 0 0 0 0 0 0 0 0 0 0 0 0 0 0 0 0 0 0.18 0"/>
<feBlend mode="normal" in2="shape" result="effect1_innerShadow_628_96"/>
<feColorMatrix in="SourceAlpha" type="matrix" values="0 0 0 0 0 0 0 0 0 0 0 0 0 0 0 0 0 0 127 0" result="hardAlpha"/>
<feOffset dy="0.681818"/>
<feComposite in2="hardAlpha" operator="arithmetic" k2="-1" k3="1"/>
<feColorMatrix type="matrix" values="0 0 0 0 1 0 0 0 0 1 0 0 0 0 1 0 0 0 1 0"/>
<feBlend mode="normal" in2="effect1_innerShadow_628_96" result="effect2_innerShadow_628_96"/>
</filter>
</defs>
</svg>
