<svg width="100" height="157" viewBox="0 0 100 157" fill="none" xmlns="http://www.w3.org/2000/svg">
<g clip-path="url(#clip0_1024_2)">
<path d="M99.9633 138.438C99.1967 114.007 90.7769 92.5183 78.3017 78.9551C78.9941 83.6905 79.4144 88.2898 79.5504 92.6667C79.7854 100.073 79.7235 109.321 79.3897 117.407C79.1053 124.096 78.5242 133.097 77.2878 138.079L76.7686 140.206L100 139.489C99.9921 139.134 99.9798 138.784 99.9633 138.438Z" fill="#EEECEA"/>
<path d="M22.7125 138.08C21.4761 133.097 20.8827 124.084 20.5983 117.408C20.2645 109.309 20.1903 100.061 20.4128 92.6673C20.5489 88.2905 20.9692 83.6911 21.6616 78.9434C9.1864 92.519 0.778928 114.02 0.0247279 138.451C0.0164852 138.797 0.00824262 139.143 0 139.49L23.2318 140.207L22.7125 138.08Z" fill="#EEECEA"/>
<path fill-rule="evenodd" clip-rule="evenodd" d="M76.7673 95.6721C76.7673 109.779 75.5927 132.084 73.5156 140.207H26.4708C24.406 132.084 23.2314 109.779 23.2314 95.6721C23.2314 50.6179 49.9994 0 49.9994 0C49.9994 0 76.7673 50.6179 76.7673 95.6721ZM61.6091 58.5061C61.6091 52.0892 56.4039 46.8964 49.9994 46.8964C43.5948 46.8964 38.3896 52.0892 38.3896 58.5061C38.3896 64.9106 43.5948 70.1035 49.9994 70.1035C56.4039 70.1035 61.6091 64.9106 61.6091 58.5061Z" fill="#EEECEA"/>
<path d="M73.4906 143.25H26.4829L15.8994 156.591H84.0741L73.4906 143.25Z" fill="#EEECEA"/>
</g>
<defs>
<clipPath id="clip0_1024_2">
<rect width="100" height="157" fill="white"/>
</clipPath>
</defs>
</svg>
