<svg width="40" height="40" viewBox="0 0 40 40" fill="none" xmlns="http://www.w3.org/2000/svg">
<path d="M25.7148 12.8574H17.1433C16.5658 12.8574 16.0447 13.2048 15.8236 13.7391C15.6025 14.2734 15.7245 14.8873 16.1333 15.296L17.9804 17.1431L10.2471 24.8765C12.4781 25.7473 14.2535 27.5227 15.1243 29.7537L22.8576 22.0204L24.7047 23.8675C25.1128 24.2762 25.7266 24.4004 26.2616 24.1772C26.7953 23.9568 27.1433 23.435 27.1433 22.8574V14.286C27.1433 13.4964 26.5037 12.8574 25.7148 12.8574Z" fill="#060612"/>
<path d="M7.14286 25.7139C3.20452 25.7139 0 28.9184 0 32.8567C0 36.7951 3.20452 39.9996 7.14286 39.9996C11.0812 39.9996 14.2857 36.7951 14.2857 32.8567C14.2857 28.9184 11.0812 25.7139 7.14286 25.7139Z" fill="#060612"/>
<path d="M32.8567 14.2857C36.7951 14.2857 39.9996 11.0812 39.9996 7.14286C39.9996 3.20452 36.7951 0 32.8567 0C28.9184 0 25.7139 3.20452 25.7139 7.14286C25.7139 11.0812 28.9184 14.2857 32.8567 14.2857Z" fill="#060612"/>
<path d="M32.8567 25.7139C28.9184 25.7139 25.7139 28.9184 25.7139 32.8567C25.7139 36.7951 28.9184 39.9996 32.8567 39.9996C36.7951 39.9996 39.9996 36.7951 39.9996 32.8567C39.9996 28.9184 36.7951 25.7139 32.8567 25.7139Z" fill="#060612"/>
<path d="M7.14286 0C3.20452 0 0 3.20452 0 7.14286C0 11.0812 3.20452 14.2857 7.14286 14.2857C11.0812 14.2857 14.2857 11.0812 14.2857 7.14286C14.2857 3.20452 11.0812 0 7.14286 0Z" fill="#060612"/>
</svg>
