<svg width="32" height="32" viewBox="0 0 32 32" fill="none" xmlns="http://www.w3.org/2000/svg">
<g filter="url(#filter0_ii_627_47)">
<path d="M13.3274 31.9998H12.306C9.6529 31.9998 8.05665 31.9993 6.83729 31.7725L13.8941 22.4273L13.3274 31.9998Z" fill="#EEECEA"/>
<path d="M25.0004 31.8011C23.802 31.999 22.2318 32 19.6965 32H18.489L17.9194 22.4246L25.0004 31.8011Z" fill="#EEECEA"/>
<path d="M31.7352 25.3363C31.6837 25.5815 31.623 25.812 31.5491 26.0337C31.0649 27.485 30.2149 28.7614 29.1073 29.7582L21.1499 20.8348L31.7352 25.3363Z" fill="#EEECEA"/>
<path d="M2.78612 29.6642C1.72894 28.6817 0.91567 27.4408 0.446618 26.0349C0.365395 25.7914 0.297956 25.5376 0.243491 25.265L10.657 20.8374L2.78612 29.6642Z" fill="#EEECEA"/>
<path d="M31.9997 19.6949C31.9997 20.5945 31.9971 21.3726 31.9883 22.0557L22.5379 18.4051H31.9997V19.6949Z" fill="#EEECEA"/>
<path d="M9.27703 18.4051L0.00852278 21.9847C0.000564889 21.3188 0 20.5635 0 19.6949V18.4051H9.27703Z" fill="#EEECEA"/>
<path d="M19.6948 0C23.0247 0 24.6898 0.000442948 26.0343 0.448867C28.6385 1.31771 30.6825 3.36169 31.5514 5.96596C31.9998 7.31044 32.0002 8.97551 32.0002 12.3055V16.0129H22.0073L29.2147 12.949L27.0769 11.5299L20.084 14.2302L23.3667 9.88648L21.0058 9.24015L17.3808 13.3027L17.1109 8.72735H14.7061L14.4319 13.3027L10.8098 9.24015L8.45038 9.88648L11.7288 14.2288L4.74009 11.5299L2.60229 12.949L9.80831 16.0129H0V12.3055C0 8.97551 0.000442948 7.31044 0.448867 5.96596C1.31771 3.36169 3.36169 1.31771 5.96596 0.448867C7.31044 0.000442948 8.97551 0 12.3055 0H19.6948Z" fill="#EEECEA"/>
</g>
<defs>
<filter id="filter0_ii_627_47" x="0" y="0" width="32" height="33.6783" filterUnits="userSpaceOnUse" color-interpolation-filters="sRGB">
<feFlood flood-opacity="0" result="BackgroundImageFix"/>
<feBlend mode="normal" in="SourceGraphic" in2="BackgroundImageFix" result="shape"/>
<feColorMatrix in="SourceAlpha" type="matrix" values="0 0 0 0 0 0 0 0 0 0 0 0 0 0 0 0 0 0 127 0" result="hardAlpha"/>
<feOffset dy="1.67833"/>
<feGaussianBlur stdDeviation="2.5175"/>
<feComposite in2="hardAlpha" operator="arithmetic" k2="-1" k3="1"/>
<feColorMatrix type="matrix" values="0 0 0 0 0 0 0 0 0 0 0 0 0 0 0 0 0 0 0.18 0"/>
<feBlend mode="normal" in2="shape" result="effect1_innerShadow_627_47"/>
<feColorMatrix in="SourceAlpha" type="matrix" values="0 0 0 0 0 0 0 0 0 0 0 0 0 0 0 0 0 0 127 0" result="hardAlpha"/>
<feOffset dy="0.839167"/>
<feComposite in2="hardAlpha" operator="arithmetic" k2="-1" k3="1"/>
<feColorMatrix type="matrix" values="0 0 0 0 1 0 0 0 0 1 0 0 0 0 1 0 0 0 1 0"/>
<feBlend mode="normal" in2="effect1_innerShadow_627_47" result="effect2_innerShadow_627_47"/>
</filter>
</defs>
</svg>
