<svg width="35" height="28" viewBox="0 0 35 28" fill="none" xmlns="http://www.w3.org/2000/svg">
<g filter="url(#filter0_ii_628_69)">
<path d="M26.1763 28C30.6792 27.9082 34.3 24.2251 34.3 19.6972C34.3 17.4952 33.4258 15.3833 31.8697 13.8263L18.0526 0V8.59397C18.0526 10.0312 18.6232 11.4096 19.6389 12.426L22.8757 15.6649L22.8845 15.6735L28.3116 21.1043C28.4879 21.2806 28.4879 21.5666 28.3116 21.7429C28.1355 21.9193 27.8496 21.9193 27.6734 21.7429L25.8027 19.871H8.4973L6.62658 21.7429C6.45033 21.9193 6.16458 21.9193 5.98833 21.7429C5.81208 21.5666 5.81208 21.2806 5.98833 21.1043L11.4155 15.6735L11.4243 15.6649L14.6611 12.426C15.6768 11.4096 16.2474 10.0312 16.2474 8.59397V0L2.43022 13.8263C0.874174 15.3833 0 17.4952 0 19.6972C0 24.2251 3.62076 27.9082 8.12371 28H26.1763Z" fill="#EEECEA"/>
</g>
<defs>
<filter id="filter0_ii_628_69" x="0" y="0" width="34.2998" height="29.5909" filterUnits="userSpaceOnUse" color-interpolation-filters="sRGB">
<feFlood flood-opacity="0" result="BackgroundImageFix"/>
<feBlend mode="normal" in="SourceGraphic" in2="BackgroundImageFix" result="shape"/>
<feColorMatrix in="SourceAlpha" type="matrix" values="0 0 0 0 0 0 0 0 0 0 0 0 0 0 0 0 0 0 127 0" result="hardAlpha"/>
<feOffset dy="1.59091"/>
<feGaussianBlur stdDeviation="2.38636"/>
<feComposite in2="hardAlpha" operator="arithmetic" k2="-1" k3="1"/>
<feColorMatrix type="matrix" values="0 0 0 0 0 0 0 0 0 0 0 0 0 0 0 0 0 0 0.18 0"/>
<feBlend mode="normal" in2="shape" result="effect1_innerShadow_628_69"/>
<feColorMatrix in="SourceAlpha" type="matrix" values="0 0 0 0 0 0 0 0 0 0 0 0 0 0 0 0 0 0 127 0" result="hardAlpha"/>
<feOffset dy="0.795455"/>
<feComposite in2="hardAlpha" operator="arithmetic" k2="-1" k3="1"/>
<feColorMatrix type="matrix" values="0 0 0 0 1 0 0 0 0 1 0 0 0 0 1 0 0 0 1 0"/>
<feBlend mode="normal" in2="effect1_innerShadow_628_69" result="effect2_innerShadow_628_69"/>
</filter>
</defs>
</svg>
