<svg width="28" height="28" viewBox="0 0 28 28" fill="none" xmlns="http://www.w3.org/2000/svg">
<g filter="url(#filter0_ii_628_72)">
<path fill-rule="evenodd" clip-rule="evenodd" d="M9.36607 0C7.82511 0 6.34733 0.612133 5.25772 1.70174L0 6.95942V9.36606C0 11.0663 0.730349 12.596 1.89445 13.6585C0.730349 14.721 0 16.2507 0 17.951V20.3576L5.25772 25.6153C6.34733 26.705 7.82511 27.3171 9.36607 27.3171C11.0664 27.3171 12.596 26.5867 13.6585 25.4226C14.721 26.5867 16.2507 27.3171 17.951 27.3171C19.492 27.3171 20.9697 26.705 22.0594 25.6153L27.3171 20.3576V17.951C27.3171 16.2507 26.5868 14.721 25.4226 13.6585C26.5868 12.596 27.3171 11.0663 27.3171 9.36606V6.95942L22.0594 1.70174C20.9697 0.612133 19.492 0 17.951 0C16.2507 0 14.721 0.730347 13.6585 1.89444C12.596 0.730347 11.0664 0 9.36607 0ZM17.5914 13.6585C17.5259 13.5988 17.4616 13.5374 17.3987 13.4744L13.6585 9.73429L9.91842 13.4744C9.85545 13.5374 9.79119 13.5988 9.7257 13.6585C9.79119 13.7183 9.85545 13.7797 9.91842 13.8426L13.6585 17.5828L17.3987 13.8426C17.4616 13.7797 17.5259 13.7183 17.5914 13.6585ZM15.1761 20.3576V21.507C15.1761 23.0395 16.4185 24.2819 17.951 24.2819C18.6869 24.2819 19.3927 23.9895 19.9131 23.4691L24.2819 19.1004V17.951C24.2819 16.4185 23.0395 15.1761 21.507 15.1761C20.7711 15.1761 20.0653 15.4685 19.5449 15.9889L15.1761 20.3576ZM12.1409 20.3576L7.77219 15.9889C7.2518 15.4685 6.54602 15.1761 5.81008 15.1761C4.27757 15.1761 3.03523 16.4185 3.03523 17.951V19.1004L7.40395 23.4691C7.92434 23.9895 8.63015 24.2819 9.36607 24.2819C10.8986 24.2819 12.1409 23.0395 12.1409 21.507V20.3576ZM12.1409 5.81008V6.95942L7.77219 11.3282C7.2518 11.8486 6.54602 12.1409 5.81008 12.1409C4.27757 12.1409 3.03523 10.8985 3.03523 9.36606V8.21669L7.40395 3.84796C7.92434 3.32758 8.63015 3.03523 9.36607 3.03523C10.8986 3.03523 12.1409 4.27757 12.1409 5.81008ZM19.5449 11.3282L15.1761 6.95942V5.81008C15.1761 4.27757 16.4185 3.03523 17.951 3.03523C18.6869 3.03523 19.3927 3.32758 19.9131 3.84796L24.2819 8.21669V9.36606C24.2819 10.8985 23.0395 12.1409 21.507 12.1409C20.7711 12.1409 20.0653 11.8486 19.5449 11.3282Z" fill="#EEECEA"/>
</g>
<defs>
<filter id="filter0_ii_628_72" x="0" y="0" width="27.3174" height="28.681" filterUnits="userSpaceOnUse" color-interpolation-filters="sRGB">
<feFlood flood-opacity="0" result="BackgroundImageFix"/>
<feBlend mode="normal" in="SourceGraphic" in2="BackgroundImageFix" result="shape"/>
<feColorMatrix in="SourceAlpha" type="matrix" values="0 0 0 0 0 0 0 0 0 0 0 0 0 0 0 0 0 0 127 0" result="hardAlpha"/>
<feOffset dy="1.36364"/>
<feGaussianBlur stdDeviation="2.04545"/>
<feComposite in2="hardAlpha" operator="arithmetic" k2="-1" k3="1"/>
<feColorMatrix type="matrix" values="0 0 0 0 0 0 0 0 0 0 0 0 0 0 0 0 0 0 0.18 0"/>
<feBlend mode="normal" in2="shape" result="effect1_innerShadow_628_72"/>
<feColorMatrix in="SourceAlpha" type="matrix" values="0 0 0 0 0 0 0 0 0 0 0 0 0 0 0 0 0 0 127 0" result="hardAlpha"/>
<feOffset dy="0.681818"/>
<feComposite in2="hardAlpha" operator="arithmetic" k2="-1" k3="1"/>
<feColorMatrix type="matrix" values="0 0 0 0 1 0 0 0 0 1 0 0 0 0 1 0 0 0 1 0"/>
<feBlend mode="normal" in2="effect1_innerShadow_628_72" result="effect2_innerShadow_628_72"/>
</filter>
</defs>
</svg>
