<svg width="32" height="31" viewBox="0 0 32 31" fill="none" xmlns="http://www.w3.org/2000/svg">
<path d="M27.9325 3.42556C28.1507 3.44437 28.3631 3.6052 28.3524 3.84548C28.3429 4.05679 28.1669 4.28564 27.9325 4.26541C26.5338 4.1448 25.1259 4.14463 23.727 4.2628C22.3728 4.37719 21.0534 4.6005 19.6909 4.94635C19.0033 5.12095 18.3226 5.32369 17.6515 5.55381C17.3299 5.66408 17.0105 5.78065 16.6934 5.90344C16.5349 5.96483 16.377 6.02774 16.2197 6.09223C16.0327 6.16891 15.9579 6.20066 15.7688 6.2833C14.4961 6.83953 13.2678 7.4978 12.1016 8.25214C10.9103 9.0227 9.87163 9.82534 8.82829 10.7899C8.31985 11.26 7.83182 11.752 7.36562 12.264C7.13777 12.5142 6.91513 12.7691 6.69786 13.0284C6.48748 13.2795 6.2362 13.5924 6.07394 13.8044C5.22889 14.9087 4.47589 16.083 3.82173 17.3099C3.15624 18.558 2.64066 19.7489 2.1895 21.0754C1.74404 22.3851 1.40298 23.7303 1.17295 25.0945C1.14364 25.2686 1.11609 25.4429 1.09039 25.6176C1.07964 25.6903 1.06948 25.7632 1.05924 25.836C1.05714 25.8509 1.05571 25.861 1.05461 25.8688C1.05361 25.8764 1.05243 25.8858 1.05067 25.8994C1.04311 25.9577 1.03555 26.0161 1.02833 26.0745C0.984908 26.4248 0.948795 26.7761 0.92024 27.1279C0.864307 27.8171 0.837013 28.5086 0.83928 29.2001C0.840371 29.5387 0.848939 29.8772 0.863971 30.2155C0.873714 30.4352 0.663837 30.6452 0.444049 30.6354C0.208137 30.6248 0.0346254 30.4509 0.0241274 30.2155C-0.102437 27.3718 0.269025 24.5038 1.08401 21.7776C1.8948 19.0656 3.14104 16.4756 4.77378 14.1627C6.42642 11.8215 8.45859 9.77999 10.7973 8.12314C13.1168 6.47999 15.7187 5.23064 18.442 4.41935C21.1789 3.60403 24.0609 3.23097 26.915 3.35854C27.2545 3.37374 27.5938 3.39633 27.9325 3.42556Z" fill="#FF6321"/>
<path d="M25.6469 0.12001C25.8147 0.28252 25.9899 0.4368 26.1721 0.583101C26.1905 0.597882 26.275 0.663305 26.2692 0.659357C26.3007 0.683293 26.3322 0.707144 26.364 0.73066C26.4577 0.800031 26.5528 0.867639 26.6489 0.933734C27.0262 1.19325 27.4194 1.42882 27.8169 1.65566C28.6146 2.11094 29.4339 2.53162 30.1985 3.0425C30.6436 3.33997 31.0719 3.66759 31.4597 4.03729C31.701 4.26741 31.5619 4.6398 31.2744 4.73915C30.4142 5.03637 29.561 5.35417 28.7163 5.69296C28.5051 5.77762 28.2945 5.86362 28.0843 5.95096C28.0349 5.97145 27.9855 5.99211 27.9361 6.01277C27.9114 6.0231 27.8867 6.03352 27.862 6.04385C27.859 6.04511 27.8519 6.04813 27.8447 6.05124C27.736 6.09726 27.6274 6.14354 27.519 6.19023C27.1073 6.36761 26.6976 6.54994 26.2902 6.73722C25.822 6.95247 25.3569 7.17436 24.8948 7.40229C24.6981 7.49938 24.4313 7.46176 24.3202 7.25163C24.2201 7.06216 24.2606 6.7809 24.4709 6.67709C26.1357 5.85572 27.8412 5.11574 29.5783 4.46099C29.8333 4.36483 30.0891 4.27085 30.3455 4.17847C30.3427 4.1762 30.3401 4.17385 30.3372 4.17158C30.3198 4.15781 30.3023 4.14412 30.2848 4.13043C30.3651 4.19384 30.2768 4.12455 30.2642 4.11489C30.2243 4.08474 30.1842 4.05493 30.1438 4.02545C30.0496 3.95658 29.9541 3.8894 29.8577 3.82372C29.4789 3.56581 29.0848 3.33124 28.6866 3.10482C27.8885 2.65096 27.0699 2.22936 26.3077 1.71521C25.8641 1.41597 25.4377 1.08633 25.0529 0.713862C24.8949 0.560759 24.8876 0.271686 25.0529 0.12001C25.2228 -0.035949 25.4781 -0.0433395 25.6469 0.12001Z" fill="#FF6321"/>
</svg>
