<svg width="100" height="213" viewBox="0 0 100 213" fill="none" xmlns="http://www.w3.org/2000/svg">
<g clip-path="url(#clip0_1024_8)">
<path d="M57.8558 212.313C57.8558 212.313 97.2225 208.873 99.8024 173.901C101.905 143.612 86.2343 126.126 99.8024 115.711C99.8024 115.711 85.7565 112.654 83.6544 138.07C83.6544 138.07 56.8048 127.655 80.6924 98.6079C104.58 69.5606 95.3115 51.3105 84.3233 38.889C73.4305 26.4674 62.0601 17.1035 66.1687 0C66.1687 0 56.0404 9.65058 57.8558 19.6834C60.9135 36.118 80.3102 58.7634 64.1622 66.4074C64.1622 66.4074 47.9186 70.4205 50.1163 48.7306C50.1163 48.7306 31.8662 53.7948 25.3688 71.5671C19.8268 86.7596 12.1828 110.552 50.594 148.963C89.0052 187.374 57.8558 212.313 57.8558 212.313Z" fill="#DF561B"/>
<path d="M54.5104 211.832C54.5104 211.832 74.0982 196.353 56.2303 170.363C38.4579 144.278 -6.8329 129.658 9.21954 68.793C9.21954 68.793 -2.34204 88.9541 0.42892 115.23C3.19988 141.507 26.6097 159.183 26.9919 173.994C27.4696 188.9 10.0795 187.371 6.83079 176.287C6.83079 176.287 3.00878 185.364 12.5638 196.544C22.2144 207.819 39.4134 213.934 54.5104 211.832Z" fill="#DF561B"/>
</g>
<defs>
<clipPath id="clip0_1024_8">
<rect width="100" height="213" fill="white"/>
</clipPath>
</defs>
</svg>
